<svg width="1200" height="630" viewBox="0 0 1200 630" fill="none" xmlns="http://www.w3.org/2000/svg">
  <defs>
    <linearGradient id="bg" x1="0" y1="0" x2="1200" y2="630" gradientUnits="userSpaceOnUse">
      <stop offset="0%" stop-color="#065f46" />
      <stop offset="100%" stop-color="#0f766e" />
    </linearGradient>
  </defs>
  <rect width="1200" height="630" fill="url(#bg)" />
  <rect x="80" y="80" width="1040" height="470" rx="36" fill="#0f172a" fill-opacity="0.18" />
  <text x="140" y="210" font-family="Segoe UI, Tahoma, Arial, sans-serif" font-size="56" fill="#f8fafc" font-weight="700">
    Historical Fantasy Football Stats
  </text>
  <text x="140" y="290" font-family="Segoe UI, Tahoma, Arial, sans-serif" font-size="32" fill="#cbd5f5" font-weight="500">
    1970-2024 Season Explorer
  </text>
  <text x="140" y="390" font-family="Segoe UI, Tahoma, Arial, sans-serif" font-size="40" fill="#a7f3d0" font-weight="700">
    Fantasy MVP
  </text>
  <circle cx="1010" cy="360" r="120" fill="#0f766e" fill-opacity="0.35" />
  <path d="M1000 300c38 0 70 32 70 70 0 38-32 70-70 70-38 0-70-32-70-70 0-38 32-70 70-70Z" fill="#f8fafc" fill-opacity="0.2" />
  <path d="M960 350c0-28 20-50 50-50 30 0 50 22 50 50 0 28-20 50-50 50-30 0-50-22-50-50Z" fill="#f8fafc" fill-opacity="0.28" />
</svg>
